<svg width="389" height="241" viewBox="0 0 389 241" fill="none" xmlns="http://www.w3.org/2000/svg">
<path d="M92.7085 63.6202C92.2065 62.5136 91.6407 60.6129 91.737 59.3987C92.7737 57.7456 101.422 55.6898 103.67 54.6672C105.209 53.9671 107.305 52.8171 108.891 52.1821C116.628 49.0845 124.322 46.3273 131.962 42.9655C136.26 41.0743 141.329 39.705 145.765 37.8916L186.65 21.3507C193.773 18.4344 201.421 14.9757 208.856 12.6727C209.521 12.467 209.683 12.5767 210.249 12.8691C211.356 14.5732 210.575 15.5492 212.354 16.182C214.18 15.9086 215.497 14.8405 216.884 15.6008C217.627 16.5801 221.181 25.8866 221.964 27.767L236.851 63.6671L245.794 84.9278C246.415 86.4154 248.004 88.7666 248.374 89.8772C254.439 87.491 260.805 85.5851 267.009 83.5606C280.624 79.1179 298.2 75.9672 312.436 74.4066C313.771 74.2602 316.896 73.4695 317.993 74.1324C320.85 75.8602 322.931 84.8447 323.851 87.9648C325.357 88.0387 326.861 87.9596 328.367 87.9264C331.632 87.8542 332.335 88.4489 333.244 91.3284C336.539 91.1943 339.838 90.8775 342.957 91.9721C343.03 92.098 343.1 92.2256 343.166 92.355C345.508 96.8248 348.878 106.586 350.879 111.619L367.038 152.317C368.219 155.304 369.926 158.316 371.128 161.341C372.762 165.45 374.157 169.677 375.783 173.781C377.236 177.444 378.961 180.843 379.82 184.741C380.443 187.58 379.398 190.569 378.556 193.267C372.343 192.821 362.79 193.047 356.48 193.064C332.121 193.172 307.797 194.861 283.657 198.12C280.278 198.561 276.879 199.265 273.493 199.765L243.723 204.276C240.675 204.769 235.721 205.489 232.795 206.213C227.109 207.621 223.032 208.551 217.17 209.359C216.981 210.755 216.628 212.24 216.152 213.567C215.805 214.534 215.108 215.977 214.098 216.404C212.194 217.208 177.762 216.9 176.038 216.012C174.012 214.969 172.766 211.07 172.142 209.015C166.784 208.171 161.668 206.531 156.326 205.589C147.352 204.007 138.278 202.743 129.254 201.391C121.513 200.231 113.399 198.702 105.699 197.734C87.154 195.417 68.5184 193.891 49.8435 193.163C36.8015 192.746 23.6375 193.029 10.6173 192.83C10.4333 191.096 9.23185 186.832 9.35842 185.992C9.89783 182.415 12.3615 177.165 13.7794 173.725C15.3961 169.804 16.5559 166.146 18.0822 162.313C19.3373 159.162 20.9755 156.105 22.2422 152.878L38.3512 112.049C41.0069 105.198 43.1953 98.1089 46.3421 91.4934C47.1336 89.8295 54.4495 90.6932 56.2629 90.8193C56.6058 89.624 57.0553 88.6388 57.5446 87.5044C59.7927 87.3004 62.8819 87.8803 64.9257 86.9257C66.01 86.4194 67.284 76.3022 70.1421 74.1918C72.1894 72.6803 88.4032 75.5789 91.5282 76.1894C90.1032 72.7498 88.6894 70.0743 88.3051 66.388C90.0968 65.885 91.9599 65.6551 92.7596 63.8596L92.7085 63.6202Z" fill="#3E231C"/>
<path d="M92.7085 63.6202C92.2065 62.5136 91.6407 60.6129 91.737 59.3987C92.7737 57.7456 101.422 55.6898 103.67 54.6672C105.209 53.9671 107.305 52.8171 108.891 52.1821C116.628 49.0845 124.322 46.3273 131.962 42.9655C136.26 41.0743 141.329 39.705 145.765 37.8916L186.65 21.3507C193.773 18.4344 201.421 14.9757 208.856 12.6727C209.521 12.467 209.683 12.5767 210.249 12.8691C211.356 14.5732 210.575 15.5492 212.354 16.182C214.18 15.9086 215.497 14.8405 216.884 15.6008C217.627 16.5801 221.181 25.8866 221.964 27.767L236.851 63.6671L245.794 84.9278C246.415 86.4154 248.004 88.7666 248.374 89.8772C248.84 91.6911 249.997 95.5219 249.917 97.148C252.528 97.2656 254.843 96.9648 257.392 96.9651L257.865 100.595C260.537 99.9538 262.238 99.7083 264.931 99.3188C265.027 100.623 265.154 101.925 265.314 103.223C268.407 103.182 270.224 102.721 273.038 102.528L273.594 105.717C275.87 105.68 278.261 104.82 279.645 105.69C280.203 106.3 280.261 107.233 280.405 108.071C282.758 108.066 284.728 107.884 287.061 107.674C287.948 109.045 288.24 109.832 288.807 111.355C290.647 111.109 292.622 110.883 294.432 110.52C295.06 112.104 295.361 112.896 295.74 114.548C299.32 114.15 301.434 114.012 304.931 113.233L305.38 116.856C308.12 116.754 309.974 116.584 312.66 115.946C312.968 117.296 313.211 118.501 313.7 119.803C315.298 119.877 316.59 119.914 318.188 119.868C318.645 123.096 319.323 126.289 320.212 129.425C318.748 130.228 317.661 130.692 316.115 131.336L316.96 135.464C312.561 137.133 308.285 138.836 304.088 140.981C301.897 142.11 299.821 143.746 297.56 144.724C289.428 148.241 281.266 151.908 273.264 155.724C266.957 158.732 260.923 162.143 254.25 164.564C252.062 165.358 249.454 167.551 247.183 168.409C244.116 169.871 240.939 171.098 237.903 172.521L221.338 180.387C215.816 183.069 210.618 185.794 204.798 187.89C203.701 188.285 201.413 190.374 200.541 190.442C199.33 189.543 199.015 189.125 197.554 188.628C196.23 188.063 194.902 187.508 193.569 186.963C192.64 186.584 187.164 186.109 186.268 186.45C185.502 184.793 186.103 184.766 184.712 182.902C182.272 182.847 180.95 182.922 178.468 182.529C178.351 181.293 178.246 180.45 178.347 179.195C175.984 179.111 172.583 178.745 170.295 178.343C169.988 177.139 169.839 176.654 169.82 175.407C167.51 175.427 165.203 175.248 162.924 174.872C162.8 173.886 162.665 172.901 162.52 171.918C160.314 171.873 157.564 171.9 155.435 171.528L154.74 168.031C152.697 167.857 150.12 167.917 148.077 168.132L147.87 164.122C146.759 164.109 145.596 164.151 144.482 164.174L141.279 164.31C141.037 163.194 140.7 162.033 140.399 160.926C139.116 160.933 137.506 161.33 136.468 160.994C135.734 160.383 135.94 160.457 135.653 159.348C133.411 158.666 132.785 159.593 131.209 158.898C130.674 158.341 130.678 158.191 130.597 157.442C130.675 155.297 130.092 153.232 129.449 151.213C129.031 150.81 128.081 150.17 127.575 149.808L126.979 149.111L126.595 148.802C124.987 148.633 124.057 149.006 122.51 149.437C120.774 148.18 110.483 120.685 108.211 116.286C103.562 105.556 99.3377 94.6255 94.9893 83.7722C94.5508 82.6783 94.3317 82.1337 93.2371 81.6653C92.5435 80.1544 91.9848 77.8503 91.5282 76.1894C90.1032 72.7498 88.6894 70.0743 88.3051 66.388C90.0968 65.885 91.9599 65.6551 92.7596 63.8596L92.7085 63.6202Z" fill="black"/>
<path d="M164.895 41.5057C168.297 39.8497 172.029 38.8104 175.402 37.2672C181.583 34.439 187.741 32.1184 194.117 29.779C196.964 28.7345 199.765 27.2831 202.624 26.2353C204.834 25.3474 207.201 24.8837 209.226 24.1177C213.044 33.058 216.541 42.4209 220.125 51.47C222.846 58.3404 226.328 64.9502 228.848 71.9399C231.858 79.024 234.749 85.8904 237.178 93.1891L237.31 93.5995L237.467 93.4932C237.917 92.0545 240.612 90.4237 241.859 90.4277L242.13 89.9276L244.307 95.628C241.224 97.4716 237.794 98.955 234.517 100.458C226.5 104.133 218.449 107.553 210.505 111.411C206.397 113.407 201.862 115.043 197.669 116.977L182.457 123.994C180.319 125 177.424 126.641 175.309 127.453C168.799 129.951 162.672 132.668 156.458 135.826C153.001 137.583 149.081 138.942 145.578 140.634C140.971 142.92 137.989 144.711 133.035 146.518C131.338 147.919 129.461 148.335 127.575 149.808L126.979 149.111L126.595 148.802C124.987 148.633 124.057 149.006 122.51 149.437C120.774 148.18 110.483 120.685 108.211 116.286C103.562 105.556 99.3377 94.6255 94.9893 83.7722C94.5508 82.6783 94.3317 82.1337 93.2371 81.6653C92.5435 80.1544 91.9848 77.8503 91.5282 76.1894C90.1032 72.7498 88.6894 70.0743 88.3051 66.388C90.0968 65.885 91.9599 65.6551 92.7596 63.8596L92.7085 63.6202C94.7815 64.4807 95.1056 63.9092 96.9361 62.8683C98.268 62.078 100.781 61.0737 102.221 60.4719C102.312 61.844 102.326 63.4981 102.79 64.764C103.2 65.1192 103.255 65.1552 103.79 65.2364C104.767 64.7318 109.093 63.7236 110.833 63.0097L134.661 53.4554C140.069 51.2892 144.957 49.2085 150.519 47.3144C155.202 45.7196 159.855 42.589 164.895 41.5057Z" fill="#E1E1E1"/>
<path d="M96.9361 62.8683C98.268 62.078 100.781 61.0737 102.221 60.4719C102.312 61.844 102.326 63.4981 102.79 64.764C103.2 65.1192 103.255 65.1552 103.79 65.2364C104.315 66.3974 104.551 67.5174 104.983 68.7165C105.856 71.0686 106.775 73.404 107.738 75.7208C108.585 77.7477 109.851 79.9341 110.572 81.9059C112.948 88.3983 115.73 94.4607 118.575 100.722C120.827 105.678 122.358 111.7 124.711 116.705C127.177 121.673 129.069 126.837 131.37 131.744C132.246 133.613 132.387 135.746 133.333 137.015C134.075 137.683 134.887 138.319 135.665 138.948C138.371 138.18 144.119 135.429 146.839 134.218L170.447 123.481C175.343 121.285 180.609 119.608 185.345 117.075C190.959 114.074 199.048 111.91 204.095 108.178C213.544 104.375 222.549 100.369 231.712 95.9484C233.351 95.1578 236.375 94.6972 237.178 93.1891L237.31 93.5996L237.467 93.4932C237.917 92.0545 240.612 90.4237 241.859 90.4277L242.13 89.9276L244.307 95.6281C241.224 97.4716 237.794 98.955 234.517 100.458C226.5 104.133 218.449 107.553 210.505 111.411C206.397 113.407 201.862 115.043 197.669 116.977L182.457 123.994C180.319 125 177.424 126.641 175.309 127.453C168.799 129.951 162.672 132.668 156.458 135.826C153.001 137.583 149.081 138.942 145.578 140.634C140.971 142.92 137.989 144.711 133.035 146.518C131.338 147.919 129.461 148.335 127.575 149.808L126.979 149.111L126.595 148.802C124.987 148.633 124.057 149.006 122.51 149.437C120.774 148.18 110.483 120.685 108.211 116.287C103.562 105.556 99.3377 94.6255 94.9893 83.7722C94.5508 82.6783 94.3317 82.1337 93.2371 81.6654C92.5435 80.1544 91.9848 77.8503 91.5282 76.1894C90.1032 72.7498 88.6894 70.0743 88.3051 66.388C90.0968 65.885 91.9599 65.6551 92.7596 63.8596L92.7085 63.6202C94.7815 64.4807 95.1056 63.9093 96.9361 62.8683Z" fill="#C2C2C3"/>
<path d="M92.7085 63.6202C94.7815 64.4807 95.1056 63.9092 96.9361 62.8683C98.2666 66.8973 99.6165 70.7825 101.539 74.5848C103.219 77.9075 104.144 81.9141 105.767 85.2123C110.729 95.2974 114.133 105.928 119.258 115.906C120.898 119.098 121.805 124.289 123.39 127.667C125.974 133.459 128.712 139.33 131.302 145.138C131.642 145.903 132.287 146.215 133.035 146.518C131.338 147.919 129.461 148.335 127.575 149.808L126.979 149.111L126.595 148.802C124.987 148.633 124.057 149.006 122.51 149.437C120.774 148.18 110.483 120.685 108.211 116.286C103.562 105.556 99.3377 94.6255 94.9893 83.7722C94.5508 82.6783 94.3317 82.1337 93.2371 81.6653C92.5435 80.1544 91.9848 77.8503 91.5282 76.1894C90.1032 72.7498 88.6894 70.0743 88.3051 66.388C90.0968 65.885 91.9599 65.6551 92.7596 63.8596L92.7085 63.6202Z" fill="black"/>
<path d="M92.7085 63.6202C94.7815 64.4807 95.1056 63.9092 96.9361 62.8683C98.2666 66.8973 99.6165 70.7825 101.539 74.5848C103.219 77.9075 104.144 81.9141 105.767 85.2123C110.729 95.2974 114.133 105.928 119.258 115.906C120.898 119.098 121.805 124.289 123.39 127.667C125.974 133.459 128.712 139.33 131.302 145.138C131.642 145.903 132.287 146.215 133.035 146.518C131.338 147.919 129.461 148.335 127.575 149.808L126.979 149.111L126.595 148.802L127.16 148.624C127.571 147.292 126.19 145.202 125.537 143.894C123.149 140.368 120.735 131.412 119.024 127.271L103.858 90.7007C101.653 85.434 98.99 80.5985 97.3765 75.0407C96.8818 73.3372 95.1392 70.9726 94.5205 69.0865C94.1089 67.8316 93.3171 64.6513 92.7596 63.8596L92.7085 63.6202Z" fill="#686769"/>
<path d="M125.537 143.894L125.6 143.747C125.862 143.119 125.919 142.922 126.076 142.252C127.633 142.728 127.754 147.154 127.828 148.587C127.397 149.055 127.597 148.907 126.979 149.111L126.595 148.802L127.16 148.624C127.571 147.292 126.19 145.202 125.537 143.894Z" fill="#3E4042"/>
<path d="M164.895 41.5057C167.14 41.388 177.409 36.8963 179.879 35.7405C179.62 36.2467 179.378 36.2265 178.77 36.5171L178.865 36.7774C179.79 37.0295 179.537 36.8193 179.934 37.4873C180.006 41.517 178.627 39.6224 176.921 41.553C175.002 42.6031 172.045 43.183 169.9 44.172C154.363 51.3342 138.029 57.0946 122.27 63.6988C119.207 64.9822 113.06 66.9674 110.642 68.2079C111.413 70.8187 112.64 72.9865 113.415 75.4062C115.503 81.9299 118.883 87.86 121.158 94.2522C123.203 99.9992 125.585 105.307 127.927 110.905C129.271 114.255 130.321 117.78 131.669 121.132C133.311 125.091 135.912 129.328 137.3 133.471C141.499 130.595 145.156 130.203 149.184 128.121C155.287 124.965 161.051 121.947 167.576 119.626C168.344 119.352 169.205 118.813 169.954 118.463C174.075 116.115 178.529 114.634 182.856 112.747C185.572 111.563 188.238 110.211 191.017 109.157C191.939 108.802 192.68 107.934 194.038 107.442C195.441 107.931 196.87 105.654 199.025 106.84L199.229 106.95L199.195 106.88C200.294 107.809 200.747 108.236 202.087 108.853C202.76 108.512 203.408 108.053 204.095 108.178C199.048 111.91 190.959 114.074 185.345 117.075C180.609 119.608 175.343 121.285 170.447 123.481L146.839 134.218C144.119 135.429 138.371 138.18 135.665 138.948C134.887 138.319 134.075 137.683 133.333 137.015C132.387 135.746 132.246 133.613 131.37 131.744C129.069 126.837 127.177 121.673 124.711 116.705C122.358 111.7 120.827 105.678 118.575 100.722C115.73 94.4607 112.948 88.3983 110.572 81.9059C109.851 79.9341 108.585 77.7477 107.738 75.7208C106.775 73.404 105.856 71.0686 104.983 68.7165C104.551 67.5174 104.315 66.3974 103.79 65.2364C104.767 64.7318 109.093 63.7236 110.833 63.0097L134.661 53.4554C140.069 51.2892 144.957 49.2085 150.519 47.3144C155.202 45.7196 159.855 42.589 164.895 41.5057Z" fill="#69686B"/>
<path d="M131.37 131.744L131.52 131.806C132.609 132.248 134.517 132.402 134.579 134.096C133.06 136.036 132.823 133.036 133.333 137.015C132.387 135.746 132.246 133.613 131.37 131.744Z" fill="#787777"/>
<path d="M164.895 41.5057C168.297 39.8497 172.029 38.8104 175.402 37.2672C181.583 34.439 187.741 32.1184 194.117 29.779C196.964 28.7345 199.765 27.2831 202.624 26.2353C204.834 25.3474 207.201 24.8837 209.226 24.1177C213.044 33.058 216.541 42.4209 220.125 51.47C222.846 58.3404 226.328 64.9502 228.848 71.9399C231.858 79.024 234.749 85.8904 237.178 93.1891C236.375 94.6972 233.351 95.1578 231.712 95.9484C222.549 100.368 213.544 104.375 204.095 108.178C203.408 108.053 202.76 108.512 202.087 108.853C200.747 108.236 200.294 107.809 199.195 106.88L199.229 106.95L199.025 106.84C196.87 105.654 195.441 107.931 194.038 107.442C195.932 106.366 203.473 103.488 206.119 102.284L222.467 94.8587C226.054 93.2176 228.26 91.9681 232.016 90.6282C228.994 86.4239 227.365 81.0565 225.468 76.2944L217.836 57.2175C216.26 53.3154 214.2 49.4881 212.512 45.5417C210.259 40.2769 209.216 34.3479 205.514 30.0393C201.527 31.6011 197.514 33.1504 193.574 34.8219C188.244 37.0832 182.454 39.8478 176.921 41.553C178.627 39.6224 180.006 41.517 179.934 37.4873C179.537 36.8193 179.79 37.0295 178.865 36.7775L178.77 36.5172C179.378 36.2265 179.62 36.2467 179.879 35.7405C177.409 36.8963 167.14 41.388 164.895 41.5057Z" fill="#898889"/>
<path d="M205.848 48.0162L206.385 48.1459C207.016 48.6768 207.427 49.9442 207.703 50.7397C210.791 59.624 215.253 67.8024 219.217 76.2974C217.078 77.4763 214.902 78.5872 212.693 79.6284C211.5 75.8009 209.653 71.7008 207.911 68.0952C207.82 67.9058 204.417 62.5115 204.665 62.736C202.925 65.2336 207.225 81.5171 195.691 72.4443C194.091 71.1858 191.717 69.5857 189.865 68.7295C191.019 70.8399 192.405 74.2609 193.458 76.6069C194.523 79.4253 196.307 82.0838 197.517 85.4456C196.131 86.1719 192.382 88.0457 191 87.9499C190.502 86.3759 189.437 85.5053 188.938 84.073C186.943 78.3441 184.595 72.7481 181.948 67.2894C180.522 64.3503 179.452 62.2973 178.484 59.1455C181.018 58.1563 183.164 57.5065 185.699 56.3502C187.623 59.1693 188.339 59.1175 190.943 61.0556C193.409 62.8921 195.345 64.6384 198.027 66.2731C198.611 61.3107 199.885 55.7494 200.702 50.7559C200.847 49.8696 204.803 48.4431 205.848 48.0162Z" fill="#DA8C9F"/>
<path d="M166.892 63.8398C166.658 63.7419 171.201 69.1599 171.891 69.8262L181.384 79.0212C185.67 83.1292 186.739 83.5703 190.291 88.3886C188.447 89.3319 186.054 90.275 184.01 91.2959C182.865 89.9255 181.059 88.25 179.746 86.9638C178.542 87.5282 176.088 88.2606 174.739 88.7021C172.267 89.6198 169.801 90.556 167.342 91.511C167.294 93.4807 167.477 95.8733 167.58 97.8724C164.389 98.5048 162.968 99.2082 160.33 101.081C160.217 97.9383 160.491 94.6838 160.386 91.6697C160.086 83.0605 160.43 74.4182 160.101 65.8429C162.387 65.2543 164.652 64.5861 166.892 63.8398Z" fill="#D3758E"/>
<path d="M167.265 74.3193C168.541 75.2355 172.403 80.0395 173.865 81.5399L171.187 82.9301C169.937 83.4241 168.421 84.1791 167.177 84.7619C167.093 82.1071 166.875 76.8658 167.265 74.3193Z" fill="#FBFAF9"/>
<path d="M132.59 77.5333C134.709 78.3048 135.194 78.0125 136.87 76.5992C137.406 77.4921 139.343 81.3333 139.31 82.149C138.167 82.4469 136.966 82.7896 135.805 82.9779C135.82 84.8649 135.906 86.4588 136.044 88.3425C141.158 87.8125 147.02 86.9452 152.07 87.4242C157.092 87.9007 158.576 94.379 158.849 98.4716C158.983 100.492 158.612 101.056 156.875 102.077C155.131 99.0661 154.782 99.1771 151.248 98.6582C151.504 96.9896 151.143 95.2534 150.826 93.6177C148.058 93.6511 147.132 94.1011 144.559 94.3854C141.48 94.7257 137.739 94.914 134.619 95.0088C133.67 95.0378 133.329 94.428 132.782 93.8027C131.88 93.673 131.561 94.0154 130.607 94.4503C130.219 90.58 128.448 87.7551 127.074 84.0061C127.473 83.7882 127.868 83.5632 128.259 83.3312C130.414 82.0419 129.486 81.3813 130.027 79.2273C130.519 78.4208 131.707 77.972 132.59 77.5333Z" fill="#B16381"/>
<path d="M151.248 98.6582C154.782 99.1772 155.131 99.0661 156.875 102.077C149.031 108.567 146.427 107.221 136.368 107.565C135.769 105.09 135.153 102.618 134.52 100.152L139.411 99.1844L139.963 101.758C140.72 101.688 143.216 101.384 143.786 101.162C147.261 99.807 147.479 99.1482 151.248 98.6582Z" fill="#A6506F"/>
<path d="M141.585 72.8674C145.55 72.8738 146.473 72.7453 150.267 72.361C150.643 74.8009 150.978 77.8687 151.401 80.1857C149.866 80.4248 148.332 80.675 146.801 80.9367C146.126 80.6016 145.303 80.1652 144.621 79.887L140.524 80.4851C140.24 80.9228 139.678 81.8774 139.31 82.149C139.343 81.3333 137.406 77.4921 136.87 76.5992C135.194 78.0125 134.709 78.3048 132.59 77.5333C136.197 75.0484 138.511 74.9446 141.585 72.8674Z" fill="#B9728D"/>
<path d="M211.877 16.4119C213.378 21.3111 215.956 25.9972 217.677 30.7772C219.839 36.7812 222.608 42.3167 225.009 48.1567L236.662 77.2221C238.454 81.6569 240.466 85.2686 242.13 89.9276L241.859 90.4277C240.612 90.4237 237.917 92.0545 237.467 93.4932L237.31 93.5995L237.178 93.1891C234.749 85.8904 231.858 79.024 228.848 71.9399C226.328 64.9502 222.846 58.3404 220.125 51.47C216.541 42.4209 213.044 33.058 209.226 24.1177C207.201 24.8837 204.834 25.3474 202.624 26.2353C199.765 27.2831 196.964 28.7345 194.118 29.779C187.741 32.1184 181.583 34.439 175.402 37.2672C172.029 38.8104 168.297 39.8497 164.895 41.5057C159.855 42.589 155.202 45.7196 150.519 47.3144C144.957 49.2085 140.069 51.2892 134.661 53.4554L110.833 63.0097C109.093 63.7236 104.767 64.7318 103.79 65.2364C103.255 65.1552 103.2 65.1192 102.791 64.764C102.326 63.4981 102.312 61.844 102.221 60.4719C107.423 58.2264 112.86 56.6785 117.945 54.5114C124.182 51.8531 130.277 49.5575 136.558 47.0856L179.16 29.9932C182.299 28.6978 185.678 26.9739 188.731 25.7938C196.539 22.7751 204.276 19.9924 211.877 16.4119Z" fill="#EDECED"/>
<path d="M130.597 157.442C132.821 158.21 134.535 156.524 135.601 157.855L135.653 159.348C133.411 158.666 132.785 159.593 131.209 158.898C130.674 158.341 130.678 158.191 130.597 157.442Z" fill="#C6C5C5"/>
<path d="M169.724 135.718C181.17 130.268 192.618 125.295 204.134 120.008L248.8 99.3838C248.943 100.777 249.334 101.878 249.743 103.209C252.777 102.578 254.479 102.22 257.545 101.876C257.698 102.944 257.905 104.774 258.197 105.752C260.565 105.07 262.361 104.811 264.832 104.646C265.116 105.675 265.818 107.896 265.999 108.823C267.752 107.787 271.638 105.917 272.951 108.189C273.302 108.794 273.559 110.604 273.704 111.36C275.625 110.982 278.113 110.315 279.861 111.443C281.017 112.188 280.758 112.925 281.419 113.894C284.446 113.266 285.423 113.093 288.555 112.948L288.692 112.942L288.802 116.642L295.041 115.393C295.326 116.796 295.587 118.382 296.103 119.703C299.939 119.046 301.629 118.696 305.557 118.852C305.703 119.94 305.919 121.256 306.004 122.33C308.325 121.828 310.596 121.327 312.938 120.928C313.128 121.978 313.354 123.463 313.644 124.455C314.06 126.425 314.258 128.379 314.489 130.377C309.13 131.913 305.933 134.518 300.93 136.678C295.117 139.186 289.532 141.74 283.93 144.7C281.704 145.855 278.51 146.748 276.46 147.951C270.963 151.177 265.133 153.268 259.473 155.965L222.875 173.593C217.697 176.076 201.459 184.768 196.707 185.053C196.148 183.72 195.425 182.166 195.119 180.774C194.142 180.938 193.119 181.092 192.15 181.28C190.742 181.984 187.822 182.707 186.392 181.755C186.001 181.495 186.082 180.92 186.051 180.466C186.092 179.514 186.116 178.561 186.123 177.607C183.944 177.036 181.908 177.221 179.68 177.338C179.629 176.06 179.665 175.369 179.163 174.17C178.452 173.758 177.667 173.647 176.861 173.475L171.007 173.184C170.913 171.948 170.839 171.614 170.462 170.431C169.652 169.376 165.683 169.693 163.759 169.374C163.508 168.189 163.409 167.322 163.28 166.132C160.825 166.595 158.939 166.77 156.455 166.726C156.01 165.435 155.879 163.226 155.077 162.475C155.589 162.103 155.91 161.927 156.453 161.632C157.56 160.631 157.778 160.203 159.209 160.1C157.829 160.026 155.105 159.429 153.693 159.145C153.686 158.293 153.578 157.363 153.497 156.507C153.582 155.999 153.592 154.283 153.609 153.685L153.916 153.434C154.823 153.27 155.727 153.094 156.629 152.906C156.303 151.177 157.352 150.228 156.557 147.339L155.853 147.73C155.426 147.058 155.566 145.831 155.582 144.981C155.691 143.571 155.717 143.164 155.511 141.741C156.891 140.802 167.205 136.812 169.724 135.718Z" fill="#ECEBEB"/>
<path d="M169.724 135.718C181.17 130.268 192.618 125.295 204.134 120.008L248.8 99.3838C248.943 100.777 249.334 101.878 249.743 103.209C252.777 102.578 254.479 102.22 257.545 101.876C257.698 102.944 257.905 104.774 258.197 105.752C258.315 106.855 258.244 107.237 258.089 108.347C258.352 109.054 258.545 109.869 259.11 110.294L259.788 110.468L261.744 111.347L262.316 112.593C262.631 112.715 262.711 112.83 263.027 112.733C264.853 112.171 266.717 113.483 268.207 114.474L268.24 114.853C267.284 116.729 268.115 119.908 269.084 121.677C267.974 122.531 264.184 124.609 262.803 124.519C261.619 125.198 260.353 125.895 259.19 126.595C257.661 127.617 254.94 129.08 253.092 129.008C251.711 129.793 249.875 130.903 248.472 131.542C246.969 131.84 243.316 132.395 242.403 133.703C242.125 134.379 241.901 134.651 241.153 134.894C237.449 136.097 233.97 138.143 230.315 139.396C229.662 139.671 228.818 140.058 228.17 140.292C225.609 141.563 224.403 142.919 221.776 143.966L218.867 145.403C217.587 146.135 216.188 146.749 214.826 147.318C211.418 148.743 208.158 150.464 204.798 151.988C203.287 153.155 201.45 154.344 199.582 154.801C197.796 155.436 195.959 156.066 194.202 156.768C192.291 158.137 189.648 159.847 187.315 160.352C184.856 161.575 181.172 162.504 179.368 163.517C178.503 164.048 178.208 164.1 177.211 164.351C176.592 165.045 174.871 166.918 174.434 167.629L174.28 167.479C173.286 169.229 170.897 169.406 170.462 170.431C169.652 169.376 165.683 169.693 163.759 169.374C163.508 168.189 163.409 167.322 163.28 166.132C160.825 166.595 158.939 166.77 156.455 166.726C156.01 165.435 155.879 163.226 155.077 162.475C155.589 162.103 155.91 161.927 156.453 161.632C157.56 160.631 157.778 160.203 159.209 160.1C157.829 160.026 155.105 159.429 153.693 159.145C153.686 158.293 153.578 157.363 153.497 156.507C153.582 155.999 153.592 154.283 153.609 153.685L153.916 153.434C154.823 153.27 155.727 153.094 156.629 152.906C156.303 151.177 157.352 150.228 156.557 147.339L155.853 147.73C155.426 147.058 155.566 145.831 155.582 144.981C155.691 143.571 155.717 143.164 155.511 141.741C156.891 140.802 167.205 136.812 169.724 135.718Z" fill="#B8B7B7"/>
<path d="M169.724 135.718C181.17 130.268 192.618 125.295 204.134 120.008L248.8 99.3838C248.943 100.777 249.334 101.878 249.743 103.209C252.777 102.578 254.479 102.22 257.545 101.876C257.698 102.944 257.905 104.774 258.197 105.752C258.315 106.855 258.244 107.237 258.089 108.347L257.854 108.016C256.769 107.504 253.577 107.288 252.177 107.111C251.643 106.556 251.21 106.011 250.496 105.729L250.129 105.938L250.033 106.81C249.689 106.191 249.513 105.55 248.837 105.373C247.314 104.975 243.497 107.133 242.287 108.026C242.217 108.078 242.146 108.132 242.078 108.187C240.588 108.91 239.197 110.224 237.686 110.422C235.721 111.161 234.379 111.628 232.549 112.652C231.307 112.491 228.679 114.079 227.532 114.716C225.464 115.449 223.725 115.939 222.016 117.351C219.949 117.508 218.122 119.615 216.963 119.757L216.073 120.265C214.588 120.611 212.751 121.001 211.666 122.134C210.383 122.869 208.298 124.203 206.862 124.299C205.553 124.811 204.356 125.288 203.072 125.868C201.732 126.523 197.376 128.324 196.6 128.824C195.318 129.349 193.413 130.047 192.333 130.804C191.009 131.103 187.467 132.038 186.437 133.117C186.27 133.293 186.349 133.643 186.366 133.934C184.506 134.753 182.185 135.408 180.496 136.213C179.735 136.491 177.587 137.548 176.896 138.002L172.087 139.973C170.792 137.78 169.171 138.604 169.724 135.718Z" fill="#DEDDDD"/>
<path d="M158.62 152.971C162.845 153.243 162.656 151.368 167.3 150.453C168.087 151.549 170.754 151.865 171.924 151.247C172.164 152.208 172.502 154.442 172.948 154.928L173.562 155.088C172.226 156.171 173.615 157.011 173.117 159.211L172.823 159.868L172.154 160.095L172.38 160.345C175.921 160.145 175.72 162.143 178.474 162.631C178.695 162.86 179.132 163.343 179.368 163.517C178.503 164.048 178.208 164.1 177.211 164.351C176.592 165.045 174.871 166.918 174.434 167.629L174.28 167.479C173.286 169.229 170.897 169.406 170.462 170.431C169.652 169.376 165.683 169.693 163.759 169.374C163.508 168.189 163.409 167.322 163.28 166.132C160.825 166.595 158.939 166.77 156.455 166.726C156.01 165.435 155.879 163.226 155.077 162.475C155.589 162.103 155.91 161.927 156.453 161.632C157.56 160.631 157.778 160.203 159.209 160.1C157.829 160.026 155.105 159.429 153.693 159.145C153.686 158.293 153.578 157.363 153.497 156.507C153.582 155.999 153.592 154.283 153.609 153.685L153.916 153.434C154.823 153.27 155.727 153.094 156.629 152.906C157.095 152.928 158.215 153.006 158.62 152.971Z" fill="#C6C5C5"/>
<path d="M156.453 161.632C157.56 160.631 157.778 160.203 159.209 160.1C159.743 160.554 160.11 160.82 160.503 161.416C161.039 162.265 164.087 163.123 165.104 163.304C166.208 162.941 166.199 162.973 167.306 163.62L168.512 165.018C170.445 165.962 170.507 164.481 170.924 165.585C171.853 166.311 173.207 166.933 174.28 167.479C173.286 169.229 170.897 169.406 170.462 170.431C169.652 169.376 165.683 169.693 163.759 169.374C163.508 168.189 163.409 167.322 163.28 166.132C160.825 166.595 158.94 166.77 156.455 166.726C156.01 165.435 155.879 163.226 155.077 162.475C155.589 162.103 155.91 161.927 156.453 161.632Z" fill="#6F6D6F"/>
<path d="M160.503 161.416C161.039 162.265 164.087 163.123 165.104 163.304C163.731 164.721 160.852 165.244 159.709 163.459C159.529 162.441 159.478 162.842 159.857 161.927L160.503 161.416Z" fill="#787777"/>
<path d="M156.453 161.632C157.56 160.631 157.778 160.203 159.209 160.1C159.743 160.554 160.11 160.82 160.503 161.416L159.857 161.927C159.234 161.642 157.752 161.875 156.453 161.632Z" fill="#686769"/>
<path d="M168.512 165.018C170.445 165.962 170.507 164.481 170.924 165.585C170.588 165.589 170.347 165.695 170.029 165.802C169.66 166.671 169.578 166.813 168.988 167.55L168.708 167.501C168.391 166.595 168.476 165.981 168.512 165.018Z" fill="#898888"/>
<path d="M158.62 152.971C162.845 153.243 162.656 151.368 167.3 150.453C168.087 151.549 170.754 151.865 171.924 151.247C172.164 152.208 172.502 154.442 172.948 154.928L173.562 155.088C172.226 156.171 173.615 157.011 173.117 159.211L172.823 159.868L172.154 160.095C171.069 159.94 169.988 160.132 168.898 160.266C167.981 154.497 166.019 155.377 160.945 156.697C160.506 154.721 160.611 153.629 158.62 152.971Z" fill="#898888"/>
<path d="M172.154 160.095C171.283 159.084 170.956 158.361 172.026 157.185L172.579 157.185C173.179 157.894 173.003 158.092 173.117 159.211L172.823 159.868L172.154 160.095Z" fill="#787777"/>
<path d="M172.38 160.345C175.921 160.145 175.72 162.143 178.474 162.631C178.695 162.86 179.132 163.343 179.368 163.517C178.503 164.048 178.208 164.1 177.211 164.351C176.592 165.045 174.871 166.918 174.434 167.629L174.28 167.479C173.207 166.933 171.853 166.311 170.924 165.585C170.507 164.481 170.445 165.962 168.512 165.018L167.306 163.62C168.85 164.151 171.213 165.814 173.049 164.525C173.32 163.835 172.935 161.011 172.38 160.345Z" fill="#AFAEAE"/>
<path d="M155.511 141.741C156.891 140.802 167.205 136.812 169.724 135.718C169.171 138.604 170.792 137.78 172.087 139.973L171.447 140.424C169.27 141.141 167.312 143.274 165.964 143.623C167.412 144.427 167.816 149.023 167.3 150.453C162.656 151.368 162.845 153.243 158.62 152.971C158.215 153.006 157.095 152.928 156.629 152.906C156.303 151.177 157.352 150.228 156.557 147.339L155.853 147.73C155.426 147.058 155.565 145.831 155.582 144.981C155.691 143.571 155.717 143.164 155.511 141.741Z" fill="#C6C5C5"/>
<path d="M165.964 143.623C167.412 144.427 167.816 149.023 167.3 150.453C162.656 151.368 162.845 153.243 158.62 152.971C158.215 153.006 157.095 152.928 156.629 152.906C156.303 151.177 157.352 150.228 156.557 147.339C157.387 146.76 164.55 144.154 165.964 143.623Z" fill="#787777"/>
<path d="M219.08 139.577C222.971 137.812 227.154 136.245 231.026 134.436C233.212 133.271 234.974 131.526 237.237 130.484C242.414 128.1 240.906 131.742 242.403 133.703C242.125 134.379 241.901 134.651 241.153 134.894C237.449 136.097 233.97 138.143 230.315 139.396C229.662 139.672 228.818 140.058 228.17 140.292C225.609 141.563 224.403 142.919 221.776 143.966C220.97 142.942 220.195 141.79 219.444 140.717C219.394 140.464 219.169 139.847 219.08 139.577Z" fill="#9D9C9B"/>
<path d="M228.17 140.292C227.515 139.205 226.813 138.163 227.801 137.077C229.357 136.92 229.787 138.153 230.315 139.396C229.662 139.672 228.818 140.058 228.17 140.292Z" fill="#AFAEAE"/>
<path d="M219.08 139.577C219.169 139.847 219.394 140.464 219.444 140.717C220.195 141.79 220.97 142.942 221.776 143.966L218.867 145.403C217.587 146.135 216.188 146.749 214.826 147.318C211.418 148.743 208.158 150.464 204.798 151.988C204.004 151.152 202.987 148.847 203.28 147.676C204.445 146.603 212.043 143.31 213.882 142.396C215.558 141.563 217.406 140.515 219.08 139.577Z" fill="#898888"/>
<path d="M250.033 106.81L250.129 105.938L250.496 105.729C251.21 106.011 251.643 106.556 252.177 107.111C253.577 107.288 256.769 107.504 257.854 108.016L258.089 108.347C258.352 109.054 258.545 109.869 259.11 110.294L259.788 110.468C257.406 110.734 257.037 111.741 255.961 113.713C256.018 114.732 255.874 115.207 255.18 115.962C253.401 116.671 250.755 114.584 249.941 113.091C249.597 112.462 250.198 111.138 250.456 110.501C250.553 108.982 250.433 108.262 250.033 106.81Z" fill="#C6C5C5"/>
<path d="M179.093 157.078C180.712 156.514 182.233 156.259 183.953 155.588C187.937 154.032 187.474 157.779 187.315 160.352C184.856 161.575 181.172 162.504 179.368 163.517C179.132 163.343 178.695 162.86 178.474 162.631C178.805 161.185 178.982 158.581 179.093 157.078Z" fill="#787777"/>
<path d="M242.078 108.187C242.146 108.132 242.217 108.078 242.287 108.026C243.497 107.133 247.314 104.975 248.837 105.373C249.513 105.55 249.689 106.191 250.033 106.81C250.433 108.262 250.553 108.982 250.456 110.501C246.806 114.05 243.93 112.414 242.078 108.187Z" fill="#9D9C9B"/>
<path d="M196.6 128.824C197.98 129.425 199.313 132.731 199.902 134.148C199.179 134.72 198.444 135.337 197.646 135.789C196.529 135.862 195.415 135.963 194.303 136.091C192.691 134.231 192.254 133.398 192.333 130.804C193.413 130.047 195.318 129.349 196.6 128.824Z" fill="#898888"/>
<path d="M176.896 138.002L176.95 138.182C177.424 139.754 179.184 142.145 178.336 143.94C177.198 145.163 174.294 145.145 172.56 145.304C172.331 144.297 171.733 141.246 171.447 140.424L172.087 139.973L176.896 138.002Z" fill="#898888"/>
<path d="M194.202 156.768C192.481 156.1 191.222 153.555 191.893 151.776C193.113 150.557 195.296 150.744 197.184 150.622C198.183 151.715 199.456 153.313 199.582 154.801C197.796 155.436 195.959 156.066 194.202 156.768Z" fill="#787777"/>
<path d="M227.532 114.716C228.83 116.421 228.994 117.881 229.491 119.963C228.448 120.697 227.582 121.346 226.425 121.909C224.261 120.847 222.448 119.966 222.016 117.351C223.725 115.939 225.464 115.449 227.532 114.716Z" fill="#9D9C9B"/>
<path d="M237.686 110.422C244.864 118.866 232.436 117.861 232.549 112.652C234.379 111.628 235.721 111.161 237.686 110.422Z" fill="#9D9C9B"/>
<path d="M186.366 133.934L187.006 134.093C187.744 135.422 188.636 137.537 188.234 139.052C187.283 140.158 186.008 139.486 184.76 139.73C183.385 139.879 183.148 139.681 182.161 138.803C181.542 138.133 180.964 137.026 180.496 136.213C182.185 135.408 184.506 134.753 186.366 133.934Z" fill="#898888"/>
<path d="M182.161 138.803C182.723 138.335 183.083 137.928 183.817 137.955C184.559 138.529 184.522 138.646 184.76 139.73C183.385 139.879 183.148 139.681 182.161 138.803Z" fill="#898888"/>
<path d="M171.924 151.247L172.045 151.069C172.539 150.332 172.605 150.175 172.804 149.321C174.509 147.994 177.785 150.067 179.098 151.291C178.858 152.112 178.485 153.254 178.339 154.067C176.988 154.249 174.732 154.478 173.562 155.088L172.948 154.928C172.502 154.442 172.164 152.208 171.924 151.247Z" fill="#686769"/>
<path d="M206.862 124.299C209.222 124.839 208.567 127.329 209.789 129.639C208.183 130.551 207.44 131.051 205.556 130.401C202.874 129.476 202.728 128.205 203.072 125.868C204.356 125.288 205.553 124.811 206.862 124.299Z" fill="#9D9C9B"/>
<path d="M216.963 119.757C223.12 125.524 215.774 126.559 213.274 124.689C212.394 123.65 212.234 123.374 211.666 122.134C212.751 121.001 214.588 120.611 216.072 120.265L216.963 119.757Z" fill="#9D9C9B"/>
<path d="M211.666 122.134C212.751 121.001 214.588 120.611 216.072 120.265C215.922 121.454 216.12 123.536 215.557 124.079C215.011 124.606 214.034 124.421 213.274 124.689C212.394 123.65 212.234 123.374 211.666 122.134Z" fill="#AFAEAE"/>
<path d="M248.472 131.542C247.319 130.403 244.919 128.942 246.286 127.246C249.59 123.151 251.565 125.095 253.092 129.008C251.711 129.793 249.875 130.903 248.472 131.542Z" fill="#898888"/>
<path d="M259.19 126.595C258.487 126.324 258.515 126.024 258.061 125.627C254.387 122.417 260.169 118.104 262.674 121.321C263.389 122.241 263.022 123.463 262.803 124.519C261.619 125.198 260.353 125.895 259.19 126.595Z" fill="#9D9C9B"/>
<path d="M255.961 113.713C257.037 111.741 257.406 110.734 259.788 110.468L261.744 111.347L262.316 112.593C261.511 117.146 257.079 117.274 255.961 113.713Z" fill="#9D9C9B"/>
<path d="M236.462 120.966C241.329 119.283 242.953 125.377 238.929 126.614C238.18 127.048 237.997 127.21 237.171 126.931C233.649 125.741 232.323 122.714 236.462 120.966Z" fill="#898888"/>
<path d="M238.929 126.614C238.18 127.048 237.997 127.21 237.171 126.931C233.649 125.741 232.323 122.714 236.462 120.966C236.754 121.659 237.813 123.401 237.799 123.84C237.757 125.085 235.973 127.167 238.929 126.614Z" fill="#9D9C9B"/>
<path d="M247.178 115.523C248.689 115.407 249.188 115.779 250.44 116.63C250.871 117.525 251.313 118.653 251.711 119.583C250.767 120.387 250.035 120.997 249.011 121.721C248.359 121.769 247.293 121.738 246.684 121.526C245.841 121.233 245.154 120.61 244.782 119.799C243.841 117.786 245.519 116.284 247.178 115.523Z" fill="#9D9C9B"/>
<path d="M217.035 129.977C219.567 130.306 220.942 132.136 219.572 134.605C218.941 135.741 217.828 135.904 216.654 136.204C211.989 135.195 212.317 130.741 217.035 129.977Z" fill="#9D9C9B"/>
<path d="M195.193 140.017C196.969 140.127 199.522 141.446 199.785 143.354C199.48 144.43 198.048 145.131 196.928 145.951L196.529 146.137C193.554 146.098 190.289 141.853 195.193 140.017Z" fill="#898888"/>
<path d="M226.189 125.465C228.927 125.274 229.241 127.026 230.401 129.239C229.571 130.261 228.945 130.903 227.731 131.389C223.645 131.827 221.655 128.062 226.189 125.465Z" fill="#9D9C9B"/>
<path d="M186.47 144.462C190.263 145.892 189.114 150.621 185.482 150.855C184.296 150.327 183.272 149.493 182.515 148.439C180.816 146.084 185.49 145.287 186.47 144.462Z" fill="#787777"/>
<path d="M206.783 135.122C208.744 135.536 209.157 136.093 210.528 137.499C209.641 139.065 209.38 139.905 207.703 140.53C205.788 140.567 202.932 140.08 203.838 137.278C204.24 136.034 205.645 135.61 206.783 135.122Z" fill="#898888"/>
<path d="M313.644 124.455C314.06 126.425 314.258 128.379 314.489 130.377C309.13 131.913 305.933 134.518 300.93 136.678C295.117 139.186 289.532 141.74 283.93 144.7C281.704 145.855 278.51 146.748 276.46 147.951C270.963 151.177 265.133 153.268 259.473 155.965L222.875 173.593C217.697 176.076 201.459 184.768 196.707 185.053C196.148 183.72 195.425 182.166 195.119 180.774C194.142 180.938 193.119 181.092 192.15 181.28C190.742 181.984 187.822 182.707 186.392 181.755C186.001 181.495 186.082 180.92 186.051 180.466C186.092 179.514 186.116 178.561 186.123 177.607C183.944 177.036 181.908 177.221 179.68 177.338C179.629 176.06 179.665 175.369 179.163 174.17C179.71 173.095 181.875 172.56 183.103 171.712C183.583 172.596 183.935 172.792 184.928 172.949C185.346 175.571 186.92 174.674 188.892 176.095C189.195 176.525 193.047 176.048 193.928 176.02C199.036 181.081 200.62 177.957 205.934 175.05C207.433 174.229 209.237 173.24 210.851 172.651L211.03 172.587C212.404 171.856 213.425 171.471 214.872 170.915L271.506 144.45C274.38 143.072 277.091 141.28 279.981 139.947C284.957 137.921 289.701 135.3 294.552 133.076C300.958 130.137 307.282 127.564 313.644 124.455Z" fill="#939194"/>
<path d="M186.051 180.466C186.819 181.011 187.349 180.974 188.28 180.815C188.584 180.762 188.887 180.701 189.189 180.631C190.298 180.793 191.092 180.868 192.15 181.28C190.742 181.984 187.822 182.707 186.392 181.755C186.001 181.495 186.082 180.92 186.051 180.466Z" fill="#686769"/>
<path d="M211.03 172.587C212.404 171.856 213.425 171.471 214.872 170.915C214.889 171.751 214.98 172.194 214.451 172.83C213.421 173.541 212.107 173.017 211.03 172.587Z" fill="#787777"/>
<path d="M186.123 177.607C186.813 178.691 187.964 180.31 189.189 180.631C188.887 180.701 188.584 180.762 188.28 180.815C187.349 180.974 186.819 181.011 186.051 180.466C186.092 179.514 186.116 178.561 186.123 177.607Z" fill="#787777"/>
<path d="M174.28 167.479L174.434 167.629C175.749 168.623 178.601 169.832 180.222 170C181.419 170.486 182.264 170.701 183.103 171.712C181.875 172.56 179.71 173.095 179.163 174.17C178.452 173.758 177.667 173.647 176.861 173.475L171.007 173.184C170.913 171.948 170.839 171.614 170.462 170.431C170.897 169.406 173.286 169.229 174.28 167.479Z" fill="#898888"/>
<path d="M180.222 170C181.419 170.486 182.264 170.701 183.103 171.712C181.875 172.56 179.71 173.095 179.163 174.17C178.452 173.758 177.667 173.647 176.861 173.475C177.759 173.492 178.19 173.564 178.98 173.136C179.928 171.812 179.011 170.921 180.222 170Z" fill="#686769"/>
<path d="M268.24 114.852C269.301 115.162 272.737 114.027 273.864 113.691C274.785 115.172 275.719 116.856 276.249 118.527C273.497 120.178 271.765 120.478 269.084 121.677C268.115 119.908 267.284 116.729 268.24 114.852Z" fill="#898888"/>
<path d="M258.197 105.752C260.565 105.07 262.361 104.811 264.832 104.646C265.116 105.675 265.818 107.896 265.999 108.823C265.797 109.659 266.084 110.309 266.138 111.232C264.618 111.074 263.262 111.234 261.744 111.347L259.788 110.468L259.11 110.294C258.545 109.869 258.352 109.054 258.089 108.347C258.244 107.237 258.315 106.855 258.197 105.752Z" fill="#FBFAF9"/>
<path d="M261.744 111.347C263.262 111.234 264.618 111.074 266.138 111.232C268.404 113.289 269.421 111.86 272.226 112.611C272.747 112.751 273.071 113.597 273.865 113.691C272.737 114.027 269.301 115.162 268.24 114.853L268.207 114.474C266.717 113.483 264.853 112.171 263.027 112.733C262.711 112.83 262.631 112.715 262.316 112.593L261.744 111.347Z" fill="#C6C5C5"/>
<path d="M184.928 172.949C188.124 171.899 188.535 173.174 188.892 176.095C186.92 174.674 185.346 175.571 184.928 172.949Z" fill="#686769"/>
<path d="M251 134.398C254.288 134.311 253.17 136.484 257.223 138.055C260.092 137.502 258.873 137.894 261.132 138.976C262.285 139.528 264.472 138.884 264.462 141.522C263.867 142.763 263.036 142.512 261.88 143.079C258.341 144.82 255.196 146.287 251.412 147.468C249.64 148.539 248.07 149.781 246.171 150.641C241.704 152.665 237.576 153.97 233.3 156.435C232.613 156.696 232.095 156.004 231.522 155.648C230.265 154.866 228.637 155.395 227.251 155.688C226.179 154.412 225.751 153.398 225.224 151.88C223.286 151.921 221.684 152.178 220.287 150.557C220.09 149.679 220.545 148.088 221.367 147.896C227.698 146.415 233.253 143.107 239.037 140.261C243.196 138.215 247.032 136.923 251 134.398Z" fill="#AFAEAE"/>
<path d="M155.511 141.741C155.717 143.164 155.691 143.571 155.582 144.981C155.566 145.831 155.426 147.058 155.853 147.73L156.557 147.339C157.352 150.228 156.303 151.177 156.629 152.906C155.727 153.094 154.823 153.27 153.916 153.434L153.609 153.685C153.592 154.283 153.582 155.999 153.497 156.507C151.312 156.438 147.5 156.101 146.52 153.91C146.134 153.556 144.566 153.348 143.863 153.171C141.748 151.781 141.451 152.486 139.314 149.843C139.388 149.763 139.461 149.682 139.534 149.602L139.657 149.481C141.919 147.205 152.925 144.141 155.511 141.741Z" fill="#AFAEAE"/>
<path d="M155.853 147.73L156.557 147.339C157.352 150.228 156.303 151.177 156.629 152.906C155.727 153.094 154.823 153.27 153.916 153.434C154.031 151.426 152.197 150.867 152.645 148.937C153.212 148.245 153.577 148.207 154.441 147.963L155.853 147.73Z" fill="#898888"/>
<path d="M154.441 147.963C153.916 146.857 153.831 145.159 155.139 144.633L155.582 144.981C155.566 145.831 155.426 147.058 155.853 147.73L154.441 147.963Z" fill="#9D9C9B"/>
<path d="M143.863 153.171C144.566 153.348 146.134 153.556 146.52 153.91C147.5 156.101 151.312 156.438 153.497 156.507C153.578 157.363 153.686 158.293 153.693 159.145C155.105 159.429 157.829 160.026 159.209 160.1C157.778 160.203 157.56 160.631 156.453 161.632C155.91 161.927 155.589 162.103 155.077 162.475C153.981 162.661 151.854 162.682 150.657 162.723C150.454 162.568 150.255 162.409 150.06 162.244C149.143 161.459 149.152 161.054 149.067 159.852C145.607 159.381 141.937 160.976 141.653 156.684L141.668 155.657C142.419 154.629 143.29 154.883 143.863 153.171Z" fill="#777677"/>
<path d="M143.863 153.171C144.566 153.348 146.134 153.556 146.52 153.91C145.071 154.982 144.154 154.205 141.653 156.684L141.668 155.657C142.419 154.629 143.29 154.883 143.863 153.171Z" fill="#3E4042"/>
<path d="M135.93 156.162C135.828 154.829 135.653 153.357 135.807 152.033C135.984 150.519 137.93 149.557 139.314 149.843C141.451 152.486 141.748 151.781 143.863 153.171C143.29 154.883 142.419 154.629 141.668 155.657C139.78 156.124 137.866 156.096 135.93 156.162Z" fill="#686769"/>
<path d="M73.4386 79.1454C76.2713 79.6764 80.2243 80.0447 83.185 80.474C85.7047 80.8395 90.8944 81.6583 93.2371 81.6653C94.3317 82.1337 94.5508 82.6783 94.9893 83.7722C99.3377 94.6255 103.562 105.556 108.211 116.286C110.483 120.685 120.774 148.18 122.51 149.437C124.057 149.006 124.987 148.633 126.595 148.802L126.979 149.111L127.575 149.808C128.081 150.17 129.031 150.81 129.449 151.213C130.092 153.232 130.675 155.297 130.597 157.442C130.678 158.191 130.674 158.341 131.209 158.898C132.785 159.593 133.411 158.666 135.653 159.348C135.94 160.457 135.734 160.383 136.468 160.994C137.506 161.33 139.116 160.933 140.399 160.926C140.7 162.033 141.037 163.194 141.279 164.31L144.482 164.174C145.596 164.151 146.759 164.109 147.87 164.122L148.077 168.132C150.12 167.917 152.697 167.856 154.74 168.031L155.435 171.528C157.564 171.9 160.314 171.873 162.52 171.917C162.665 172.901 162.8 173.885 162.924 174.872C165.203 175.248 167.51 175.427 169.82 175.407C169.839 176.654 169.988 177.139 170.295 178.343C172.583 178.745 175.984 179.111 178.347 179.195C178.246 180.45 178.351 181.293 178.468 182.529C180.95 182.922 182.272 182.847 184.712 182.902C186.103 184.766 185.502 184.793 186.268 186.45C187.164 186.109 192.64 186.584 193.569 186.963C192.811 190.128 193.066 196.999 193.27 200.352C187.891 194.789 178.294 189.894 171.581 185.99C164.136 181.66 156.972 178.268 148.836 175.485C146.441 174.644 144.029 173.242 141.631 172.445C133.964 169.898 126.116 166.98 118.39 164.692C111.06 162.402 103.176 161.414 95.8008 159.599C80.4502 155.823 65.0436 154.095 49.2687 152.861C51.4189 144.877 53.595 139.426 56.0895 131.783L67.4845 96.4129C69.4202 90.5482 71.5278 85.2236 73.4386 79.1454Z" fill="#FBFAF9"/>
<path d="M108.211 116.286C110.483 120.685 120.774 148.18 122.51 149.437C124.057 149.006 124.987 148.633 126.595 148.802L126.979 149.111L127.575 149.808C128.081 150.17 129.031 150.81 129.449 151.213C130.092 153.232 130.675 155.297 130.597 157.442C130.678 158.191 130.674 158.341 131.209 158.898C132.785 159.593 133.411 158.666 135.653 159.348C135.94 160.457 135.734 160.383 136.468 160.994C137.506 161.329 139.116 160.933 140.399 160.926C140.7 162.033 141.037 163.194 141.279 164.31L144.482 164.174C145.596 164.151 146.759 164.109 147.87 164.122L148.077 168.132C146.871 168.234 142.002 166.816 140.609 166.362C139.9 166.177 138.489 165.345 137.727 165.013C131.016 162.091 125.796 157.077 119.399 153.479C110.413 148.424 100.737 145.251 91.9641 139.812C89.5499 138.318 86.5489 137.251 84.0904 135.768C82.3834 134.745 80.8334 133.608 79.1833 132.508L76.0468 132.429C75.996 130.893 75.8941 129.31 75.8136 127.772C78.9124 126.521 80.0146 124.829 81.92 124.074C86.4948 122.394 91.2759 121.019 95.9524 119.622C99.8135 118.468 104.224 116.259 108.211 116.286Z" fill="#F4E1DA"/>
<path d="M144.482 164.174C145.596 164.151 146.759 164.109 147.87 164.122L148.077 168.132C146.871 168.234 142.002 166.816 140.609 166.362C142.114 166.311 146.564 166.436 147.494 165.56C147.025 164.601 145.465 164.401 144.482 164.174Z" fill="#C6C5C5"/>
<path d="M249.917 97.148C250.205 95.9707 250.238 95.5643 251.435 94.9218C257.458 91.6951 264.415 90.2173 270.937 88.2867C285.731 83.908 299.908 80.9668 315.303 79.4017C318.727 89.061 322.213 98.6888 325.185 108.492C326.673 113.393 328.892 118.147 330.525 123.019L337.8 144.472C338.683 147.065 339.655 150.628 340.594 153.047C332.225 153.813 323.408 154.379 315.079 155.735C276.119 162.077 236.655 173.565 203.529 195.642C201.287 197.136 199.378 199.108 197.241 200.607C197.235 196.612 197.339 192.618 197.554 188.628C199.015 189.125 199.33 189.543 200.541 190.442C201.413 190.374 203.701 188.285 204.798 187.89C210.618 185.794 215.816 183.069 221.338 180.387L237.903 172.521C240.939 171.098 244.116 169.871 247.183 168.409C249.454 167.551 252.062 165.358 254.25 164.564C260.923 162.143 266.957 158.732 273.264 155.724C281.266 151.908 289.428 148.241 297.56 144.724C299.821 143.746 301.897 142.11 304.088 140.981C308.285 138.836 312.561 137.133 316.96 135.464L316.115 131.336C317.661 130.692 318.748 130.228 320.212 129.425C319.323 126.289 318.645 123.096 318.188 119.868C316.59 119.914 315.298 119.877 313.7 119.803C313.211 118.501 312.968 117.296 312.66 115.946C309.974 116.584 308.12 116.754 305.38 116.856L304.931 113.233C301.434 114.012 299.32 114.15 295.74 114.548C295.362 112.896 295.06 112.104 294.432 110.52C292.622 110.883 290.647 111.109 288.807 111.355C288.24 109.832 287.948 109.045 287.061 107.674C284.728 107.884 282.758 108.066 280.405 108.071C280.261 107.233 280.203 106.3 279.645 105.69C278.261 104.82 275.87 105.68 273.594 105.717L273.038 102.528C270.224 102.721 268.407 103.182 265.314 103.223C265.154 101.925 265.027 100.623 264.931 99.3188C262.238 99.7083 260.537 99.9538 257.865 100.595L257.392 96.9651C254.843 96.9648 252.528 97.2656 249.917 97.148Z" fill="#FBFAF9"/>
<path d="M14.5934 187.543C15.8353 183.609 17.1313 179.621 18.56 175.752C19.4703 173.286 20.6372 170.873 21.6008 168.412L37.238 129.172C40.399 121.282 43.1938 113.292 46.7413 105.544C47.7952 103.242 48.5841 100.646 49.626 98.3005C50.8129 95.6285 51.5832 96.1063 54.1963 96.3273C53.3154 99.3104 51.706 102.069 50.6879 104.959C48.6302 110.797 46.3741 116.463 44.0192 122.186C42.7735 125.213 41.8199 128.608 40.6702 131.708L29.6173 160.855C27.8131 165.502 25.8009 169.903 24.2895 174.7C23.2827 177.895 21.8593 180.874 21.0762 184.191C26.3497 184.439 31.6185 183.801 36.8718 183.467C45.3941 182.927 53.9887 183.9 62.4322 184.014C73.9439 184.169 84.6593 184.906 96.0564 186.566C102.435 187.495 109.274 187.748 115.696 188.66C121.472 189.311 127.371 190.845 133.112 191.855C137.987 192.712 142.967 193.359 147.804 194.312C154.356 195.66 160.845 197.298 167.252 199.219C172.179 200.658 181.025 201.962 183.956 206.125C188.804 206.072 193.64 206.025 198.489 206.015C201.126 206.01 205.29 206.402 207.742 206.055C208.256 205.39 207.991 203.914 208.488 203.736C214.862 201.462 222 199.619 228.652 198.081C263.038 190.13 299.386 184.856 334.557 183.666C340.871 183.469 347.191 183.424 353.507 183.531C356.953 183.61 365.673 184.158 368.516 183.613C368.45 182.266 368.299 181.834 367.913 180.568C366.358 178.929 364.162 171.732 363.152 169.138L345.92 124.075C344.503 120.32 335.946 100.325 337.042 97.9234C338.144 97.284 339.448 97.2381 340.092 98.4869C341.072 100.38 341.559 102.42 342.366 104.366L349.445 121.788L367.513 167.364C370.182 174.291 373.545 180.446 375.129 187.944C366.751 188.029 358.37 188.03 349.991 187.945C316.931 187.747 284.109 193.343 251.37 197.384C250.049 197.547 248.279 197.901 246.985 198.208C235.455 200.936 223.941 202.809 212.249 204.672C211.953 206.867 211.699 209.066 211.487 211.27L177.975 210.89C177.728 209.598 176.975 204.999 176.625 203.991C173.765 203.321 170.211 202.934 167.225 202.44L148.677 199.3C126.902 195.427 104.977 192.453 82.9581 190.385C73.6782 189.456 65.1072 188.451 55.7042 188.028C41.9265 187.408 28.3432 187.947 14.5934 187.543Z" fill="#785D88"/>
<path d="M367.913 180.568C369.361 180.842 370.272 181.225 369.996 182.942C369.373 183.592 369.533 183.403 368.516 183.613C368.45 182.266 368.299 181.834 367.913 180.568Z" fill="#695284"/>
<path d="M30.3519 172.263C31.5166 166.79 35.8551 157.365 37.865 152.081L55.6693 105.953C57.2528 101.927 58.5957 97.8135 60.262 93.8234C60.7772 92.5899 60.8972 91.9085 62.3578 91.8179C62.8991 92.1825 63.4129 92.7986 63.1227 93.4875C59.2159 101.897 57.7456 110.749 54.6529 119.352C52.0826 126.502 49.3344 133.301 47.4495 140.919C46.6634 144.095 42.4195 153.559 42.4824 156.601C42.521 158.476 55.1436 159.003 57.1438 159.169C83.233 161.377 108.95 166.795 133.714 175.299C138.098 176.774 142.983 178.325 147.244 180.012C150.07 180.116 153.346 181.074 155.687 182.917C155.943 183.118 156.283 184.103 156.644 184.58C159.771 185.76 166.288 188.123 169.026 189.579L168.235 190.314C163.983 187.918 154.899 185.28 150.211 183.615C141.377 180.283 132.324 178.523 123.187 176.433C92.4979 169.414 61.6706 169.245 30.3519 172.263Z" fill="#E7A9AF"/>
<path d="M147.244 180.012C150.07 180.116 153.346 181.074 155.687 182.917C155.943 183.118 156.283 184.103 156.644 184.58C153.664 183.34 150.267 181.445 147.244 180.012Z" fill="#4F2621"/>
<path d="M347.325 158.246C346.576 152.25 344.171 147.766 342.288 142.182L330.052 104.987C328.939 101.497 327.619 98.223 326.348 94.7989C325.931 93.6739 326.703 92.8707 327.741 92.4991C328.202 92.5671 328.793 92.6833 329.024 93.1896C331.603 98.8707 333.02 104.872 335.924 110.475C338.372 115.194 339.824 120.513 341.625 125.506L351.206 151.395C352.171 153.926 353.543 156.67 354.639 159.244C356.341 163.241 357.445 168.083 359.175 171.872C348.692 171.436 337.082 170.447 326.732 170.36C301.784 170.006 276.922 173.335 252.944 180.238C249.656 181.165 246.392 182.657 243.172 183.537C238.303 184.869 233.729 186.37 228.944 187.935C228.234 187.816 228.124 187.998 227.368 188.287L227.211 188.133L227.642 187.401C229.953 186.481 232.818 185.42 234.953 184.229C242.374 180.09 250.052 177.887 258.082 175.207C286.828 165.614 316.983 159.362 347.325 158.246Z" fill="#E6B2B6"/>
<path d="M154.783 192.222C150.982 191.296 146.771 189.831 143.012 189.042C137.894 187.968 132.246 187.217 127.052 186.444C117.47 184.968 107.858 183.692 98.2223 182.617C94.075 182.136 90.1578 181.379 86.1469 180.899C77.0983 179.881 68.0112 179.24 58.9092 178.978C51.6997 178.835 44.4876 178.882 37.2804 179.117C35.4465 179.178 28.4429 180.055 27.361 178.998C27.1984 177.219 28.7388 176.814 30.1874 176.705C35.0413 176.343 39.9034 175.966 44.7613 175.665C67.2661 174.105 89.8756 175.128 112.148 178.714C116.185 179.365 120.916 180.053 124.865 180.915C127.849 181.566 131.686 183.085 134.882 183.913C141.658 185.667 149.446 187.793 155.956 190.329C160.689 191.599 167.237 193.596 171.238 196.277C168.316 195.858 157.654 193.36 154.783 192.222Z" fill="#E7A9AF"/>
<path d="M155.956 190.329C160.689 191.599 167.237 193.596 171.238 196.277C168.316 195.858 157.654 193.36 154.783 192.222C155.971 192.03 158.484 192.614 159.581 193.138C160.043 192.803 159.9 192.985 160.074 192.386C159.356 191.316 157.346 191.476 155.956 190.329Z" fill="#AF7476"/>
<path d="M241.635 188.36C247.357 186.119 254.476 184.689 260.414 183.067C280.125 177.684 301.801 174.77 322.257 175.223C332.865 175.458 351.25 174.7 361.385 177.159C361.966 177.8 361.797 177.587 361.891 178.587L361.632 178.965C359.106 179.227 352.597 178.92 349.702 178.914C340.683 178.897 331.85 178.881 322.825 179.36C310.838 179.995 299.645 181.6 287.8 183.205C275.731 184.789 263.697 186.637 251.709 188.748C248.555 189.316 245.443 190.343 242.685 190.842C237.503 192.356 231.88 193.279 226.904 194.717L226.312 193.51C231.034 192.431 237.31 189.177 241.635 188.36Z" fill="#E7A9AF"/>
<path d="M226.312 193.51C231.034 192.431 237.31 189.177 241.635 188.36L241.485 188.789C240.32 189.178 233.813 191.308 233.403 191.956L233.453 192.717C234.98 192.154 241.087 190.624 242.685 190.842C237.503 192.356 231.88 193.279 226.904 194.717L226.312 193.51Z" fill="#AA7884"/>
<path d="M227.642 187.401L227.211 188.133L227.368 188.287C228.124 187.998 228.234 187.816 228.944 187.935C227.42 188.803 223.528 190.884 221.991 191.466L221.443 190.297C223.463 189.235 225.532 188.269 227.642 187.401Z" fill="#92787E"/>
<path d="M226.904 194.717C225.812 195.358 221.811 196.687 220.778 196.022C221.498 194.783 224.853 193.969 226.312 193.51L226.904 194.717Z" fill="#7B585C"/>
<path d="M169.026 189.579C170.005 190.026 171.774 190.888 172.396 191.712L172.525 192.279C171.428 193.05 169.139 191.095 168.235 190.314L169.026 189.579Z" fill="#7B585C"/>
<path d="M221.991 191.466C221.212 192.03 219.02 193.22 218.111 192.78L218.26 192.297C219.095 191.39 220.332 190.864 221.443 190.297L221.991 191.466Z" fill="#7B585C"/>
</svg>
